<svg xmlns="http://www.w3.org/2000/svg" version="1.1" xmlns:xlink="http://www.w3.org/1999/xlink" xmlns:svgjs="http://svgjs.dev/svgjs" width="1000" height="1125" viewBox="0 0 1000 1125"><g transform="matrix(1,0,0,1,1.7053025658242404e-13,0)"><svg viewBox="0 0 320 360" data-background-color="#ffffff" preserveAspectRatio="xMidYMid meet" height="1125" width="1000" xmlns="http://www.w3.org/2000/svg" xmlns:xlink="http://www.w3.org/1999/xlink"><g id="tight-bounds" transform="matrix(1,0,0,1,0,0)"><svg viewBox="0 0 320 360" height="360" width="320"><g><svg></svg></g><g><svg viewBox="0 0 320 360" height="360" width="320"><g><path xmlns="http://www.w3.org/2000/svg" d="M20.961 227.22l3.726 4.658-1.863-6.056c-0.466-2.795-3.726 0.466-1.863 1.398M25.153 224.425c1.397 2.329 2.795 4.658 2.795 6.987 0 3.261 2.795 4.658 5.123 5.589-3.261-3.726-5.124-13.974-7.918-12.576M204.017 26.929c7.918 0 15.371-0.932 23.756 0.931 20.495 5.124 37.729 15.371 49.374 29.811l32.606 52.169c1.397 13.042 4.192 27.482 3.726 43.319 3.261 0 2.795-4.658 6.521-5.59-3.726 9.316-5.59 20.961-6.521 34.469-2.329-7.453 0-18.632 0.466-24.687-3.261 5.124-5.124 1.397-5.124-0.932 0.466-3.726-1.397-3.261-2.795-4.658-5.124-4.658-8.384-9.782-12.11-17.7 2.329-6.055 2.795-14.905-4.658-19.563-2.329-1.397-5.124-3.726-6.521-7.453-1.863-5.124-5.124-11.179-4.193-19.097 0.466-2.329-6.987 5.124-11.179 1.863-18.166-12.576-36.332-27.016-58.224-39.127-11.645 0-20.029-4.192-24.221-9.316-3.726-4.658-0.932-10.713 4.658-11.179 3.261 0 6.987-0.932 9.782 0.932 0.466-1.863 2.329-4.192 4.657-4.192M157.904 16.215l0.932 0.466c4.658 0.932 6.987 7.453 12.11 5.124 0 3.261 0.466 6.521-0.466 8.85-1.397 3.726-5.59 3.726-8.85 3.726-31.208-1.863-49.374 11.179-68.471 22.358-5.124 3.261-10.713 5.59-14.906 9.782-20.029 18.632-41.921 35.866-47.045 70.335l-4.192 38.195c-0.466 4.192-5.124 8.384-4.192 13.508l3.26 22.824c-3.261-3.261-5.124 0.932-4.192 2.795 0.466 1.397 2.329 6.055 5.124 1.863 3.726 6.987 7.453 20.495 12.576 26.55 15.837 18.632 36.332 35.4 53.101 52.169 4.192-0.932 7.453-0.932 8.384-3.727 1.397 2.795-1.397 5.59-3.726 6.056 7.453 4.658 15.837 8.85 27.016 9.781 14.44 0.932 27.948 3.261 40.524 6.522 6.521-1.863 13.042-2.795 20.029-3.261 2.329 0 3.726-3.726 6.521-4.658l0.466-4.658c2.795 4.192 2.329-1.397 0.466-4.192 3.261 2.795 4.192 5.124 5.589 6.987 0-1.397 3.726-6.521 3.727-0.466l0.931-6.055c1.397-0.932 1.863 5.124 3.261 0.931 1.397-4.192 4.192-0.932 6.987-2.329-0.932 1.863-0.466 5.59 2.794 3.261l3.727-3.261c2.329 5.59 6.055 3.261 7.918 2.329 20.495-13.042 40.99-28.413 60.553-43.784l-0.466 6.055 2.329-7.453c2.329 2.329 4.192 0.466 5.124-0.931 2.795-4.658 6.521-9.316 12.577-13.508-7.453 20.029-16.303 35.866-27.482 48.908l-4.658 5.59c0 3.261-0.932 7.453-4.658 7.918-1.863 0.466-5.59-0.932-8.384 1.863-1.397 1.863 3.261 5.59-0.466 2.795-3.261-2.329-6.521 0-10.248 0.932-2.795 0.932 1.863 3.726 2.795 5.589 0.932 1.863 1.863 3.726 1.398 6.056l-5.124-5.59c-6.055 3.261-9.782 9.316-14.906 13.974-2.329 1.863-1.397 5.124-1.397 7.918-3.261 0-6.987-0.932-8.85 0.932-1.397 1.863-0.932 4.658-0.932 7.453-4.658-0.466-5.124-7.453-9.315-6.056-4.192 0.932-8.85 1.397-12.577 3.727 2.795 5.59-4.658 2.329-3.726 3.26-6.987-4.192-13.042-7.453-20.495-4.658-15.837-5.124-35.4-2.795-49.84-0.931 0-2.329 0.466-4.658-0.466-5.124-0.932 2.329-3.726 1.397-3.26 1.397-8.85-6.055-17.7-9.782-27.016-14.905-8.384 0.932-16.303-3.261-18.632-5.59-6.521-6.055-13.974-2.795-20.029-4.192-13.042-3.261-17.7-16.769-19.098-26.084-0.932-4.658-4.658-6.521-6.055-6.056-6.055-19.563-15.371-37.263-22.824-55.429-1.863-4.658-1.397-9.316-1.397-14.44 2.329 0.932 4.658 0.466 4.192-2.794-2.329-15.371-7.918-27.016-13.974-38.195 3.261-15.837 3.726-34.469 11.179-48.443 6.521-12.576 18.632-19.098 27.016-29.811 2.795-3.726 2.795-8.85 5.59-12.11 9.316-9.316 18.632-19.098 28.879-27.482 4.658-3.726 10.247 0 17.234-1.397 2.329-8.384 11.645-15.837 20.495-13.508 3.726 0.932 11.179-8.85 13.508-9.782 3.726-1.397 1.863 3.726 1.863 6.987 8.85-6.987 20.961-10.713 32.14-14.906" fill="#35185a" fill-rule="nonzero" stroke="none" stroke-width="1" stroke-linecap="butt" stroke-linejoin="miter" stroke-miterlimit="10" stroke-dasharray="" stroke-dashoffset="0" font-family="none" font-weight="none" font-size="none" text-anchor="none" style="mix-blend-mode: normal" data-fill-palette-color="tertiary"></path></g><g transform="matrix(1,0,0,1,66.71601280333661,90)"><svg viewBox="0 0 186.56797439332678 180" height="180" width="186.56797439332678"><g><svg viewBox="0 0 186.56797439332678 180" height="180" width="186.56797439332678"><g><svg viewBox="0 0 192 185.24079554586274" height="180" width="186.56797439332678"><g transform="matrix(1,0,0,1,0,101.24849278768441)"><svg viewBox="0 0 192 83.99230275817833" height="83.99230275817833" width="192"><g id="textblocktransform"><svg viewBox="0 0 192 83.99230275817833" height="83.99230275817833" width="192" id="textblock"><g><svg viewBox="0 0 192 83.99230275817833" height="83.99230275817833" width="192"><g transform="matrix(1,0,0,1,0,0)"><svg width="192" viewBox="-1.2999999523162842 -33.79999923706055 77.95000457763672 34.099998474121094" height="83.99230275817833" data-palette-color="#35185a"><path d="M23.95-33.3Q31.45-33.3 35.25-30.43 39.05-27.55 39.05-22L39.05-22Q39.05-19.25 38.05-15.65L38.05-15.65Q36.4-9.85 33.6-6.45 30.8-3.05 26.23-1.5 21.65 0.05 14.5 0L14.5 0 0.9-0.05Q-0.15-0.05-0.73-0.4-1.3-0.75-1.3-1.35L-1.3-1.35Q-1.3-1.65-1.15-2L-1.15-2Q-1-2.45-0.73-2.65-0.45-2.85 0.1-3.2L0.1-3.2Q0.9-3.65 1.38-4.2 1.85-4.75 2.2-5.95L2.2-5.95 8.3-27.45Q8.5-28.1 8.5-28.7L8.5-28.7Q8.5-29.25 8.33-29.63 8.15-30 7.85-30.5L7.85-30.5Q7.4-31.15 7.4-31.55L7.4-31.55Q7.4-31.7 7.5-32.1L7.5-32.1Q7.7-32.75 8.38-33.02 9.05-33.3 10.45-33.3L10.45-33.3 23.95-33.3ZM25.25-16.75Q26.55-21.45 26.55-24.15L26.55-24.15Q26.55-26.8 25.45-27.8 24.35-28.8 22.3-28.8L22.3-28.8 21.2-28.8 14.45-4.5 15.65-4.5Q17.95-4.5 19.53-5.48 21.1-6.45 22.45-9.08 23.8-11.7 25.25-16.75L25.25-16.75ZM56 0.3Q51.8 0.3 48.45-1.25 45.1-2.8 43.12-5.83 41.15-8.85 41.15-13.15L41.15-13.15Q41.15-16.15 42.2-19.65L42.2-19.65Q44.5-27.15 49.15-30.48 53.8-33.8 59.1-33.8L59.1-33.8Q61.95-33.8 64.15-32.95 66.35-32.1 68.2-30.5L68.2-30.5 69.55-31.55Q70.9-32.6 71.82-33 72.75-33.4 73.9-33.4L73.9-33.4Q75.15-33.4 75.9-32.85 76.65-32.3 76.65-31.25L76.65-31.25Q76.65-30.7 76.45-30.15L76.45-30.15 73.65-22.35Q73.2-21 72.57-20.45 71.95-19.9 70.7-19.9L70.7-19.9Q69.4-19.9 68.57-20.83 67.75-21.75 66.7-24L66.7-24Q65.5-26.35 64.75-27.1 64-27.85 62.55-27.85L62.55-27.85Q60.5-27.85 58.6-25.33 56.7-22.8 55.15-17.75L55.15-17.75Q53.85-13.5 53.85-10.65L53.85-10.65Q53.85-8.15 54.8-6.93 55.75-5.7 57.35-5.7L57.35-5.7Q59.7-5.7 61.22-6.75 62.75-7.8 64.35-9.6L64.35-9.6Q65.35-10.7 65.97-11.23 66.6-11.75 67.3-11.75L67.3-11.75Q68.2-11.75 69.2-10.85 70.2-9.95 70.15-9.05L70.15-9.05Q70.2-7.95 68.37-5.65 66.55-3.35 63.32-1.53 60.1 0.3 56 0.3L56 0.3Z" opacity="1" transform="matrix(1,0,0,1,0,0)" fill="#35185a" class="undefined-text-0" data-fill-palette-color="primary" id="text-0"></path></svg></g></svg></g></svg></g></svg></g><g transform="matrix(1,0,0,1,36.672,0)"><svg viewBox="0 0 118.656 88.992" height="88.992" width="118.656"><g><svg xmlns="http://www.w3.org/2000/svg" xmlns:xlink="http://www.w3.org/1999/xlink" version="1.1" x="0" y="0" viewBox="14 19 80 60" enable-background="new 0 0 108.121 99.421" xml:space="preserve" width="118.656" height="88.992" class="icon-icon-0" data-fill-palette-color="accent" id="icon-0"><g fill="#35185a" data-fill-palette-color="accent"></g><g fill="#35185a" data-fill-palette-color="accent"></g><g fill="#35185a" data-fill-palette-color="accent"></g><g fill="#35185a" data-fill-palette-color="accent"></g><path d="M92 19H16c-1.104 0-2 0.896-2 2v45c0 1.104 0.896 2 2 2h76c1.104 0 2-0.896 2-2V21C94 19.896 93.104 19 92 19zM90 60H18V23h72V60z" fill="#35185a" data-fill-palette-color="accent"></path><rect x="45" y="66" width="18" height="12" fill="#35185a" data-fill-palette-color="accent"></rect><rect x="38" y="76" width="32" height="3" fill="#35185a" data-fill-palette-color="accent"></rect><g fill="#35185a" data-fill-palette-color="accent"><path d="M46.324 50.387L31.583 43.84v-2.508l14.741-7.377v4.33l-9.04 4.126 9.04 3.674V50.387z" fill="#35185a" data-fill-palette-color="accent"></path><path d="M60.569 31.359l-7.947 21.915h-5.045l7.947-21.915H60.569z" fill="#35185a" data-fill-palette-color="accent"></path><path d="M61.677 46.085l9.041-3.674-9.041-4.126v-4.33l14.741 7.377v2.508l-14.741 6.546V46.085z" fill="#35185a" data-fill-palette-color="accent"></path></g></svg></g></svg></g><g></g></svg></g></svg></g></svg></g></svg></g><defs></defs></svg><rect width="320" height="360" fill="none" stroke="none" visibility="hidden"></rect></g></svg></g></svg>